<svg width="83" height="83" viewBox="0 0 83 83" fill="none" xmlns="http://www.w3.org/2000/svg">
<circle cx="41.5" cy="41.5" r="39.5" fill="#F42D2D" stroke="#FF9A9A" stroke-width="4"/>
<path d="M43.2812 58.0938V47.4062H50.4062L41.5 36.7188L32.5937 47.4062H39.7187V58.0938H30.8125V58.0047C30.5132 58.0225 30.2282 58.0938 29.9219 58.0938C26.3787 58.0938 22.9807 56.6862 20.4754 54.1809C17.97 51.6755 16.5625 48.2775 16.5625 44.7344C16.5625 37.8801 21.7459 32.2941 28.3971 31.5282C28.9803 28.4797 30.6075 25.7298 32.9988 23.7513C35.3902 21.7728 38.3963 20.6894 41.5 20.6875C44.6042 20.6892 47.6107 21.7724 50.0027 23.7509C52.3947 25.7294 54.0226 28.4794 54.6064 31.5282C61.2576 32.2941 66.4339 37.8801 66.4339 44.7344C66.4339 48.2775 65.0264 51.6755 62.5211 54.1809C60.0157 56.6862 56.6177 58.0938 53.0746 58.0938C52.7753 58.0938 52.4867 58.0225 52.1839 58.0047V58.0938H43.2812Z" fill="white"/>
</svg>
